<?xml version="1.0" standalone="no"?><!DOCTYPE svg PUBLIC "-//W3C//DTD SVG 1.1//EN" "http://www.w3.org/Graphics/SVG/1.1/DTD/svg11.dtd"><svg t="1573695068672" class="icon" viewBox="0 0 1024 1024" version="1.1" xmlns="http://www.w3.org/2000/svg" p-id="3014" xmlns:xlink="http://www.w3.org/1999/xlink" width="48" height="48"><defs><style type="text/css"></style></defs><path d="M207.872 463.189333 207.872 463.189333c0-13.653333 1.024-27.306667 2.730667-40.277333L107.52 422.912c-16.042667 0-29.013333 12.629333-29.013333 28.330667 0 15.701333 12.970667 28.330667 29.013333 28.330667L208.213333 479.573333C207.872 474.112 207.872 468.650667 207.872 463.189333L207.872 463.189333zM205.824 712.362667 205.824 712.362667c-11.264 11.264-11.264 29.013333 0 40.277333 11.264 10.922667 29.696 10.922667 40.96 0l52.906667-51.882667c-11.946667-13.312-24.576-27.989333-36.181333-44.714667L205.824 712.362667 205.824 712.362667zM279.210667 261.802667 279.210667 261.802667c11.946667-15.018667 25.258667-28.672 39.936-41.301333L247.125333 149.845333c-11.264-11.264-29.696-11.264-40.96 0-11.264 10.922667-11.264 29.013333 0 40.277333L279.210667 261.802667 279.210667 261.802667zM587.093333 924.330667l-147.456 0c-15.36 0-27.648 12.288-27.648 26.965333 0 15.018667 12.288 27.306667 27.648 27.306667L587.093333 978.602667c15.36 0 27.648-12.288 27.648-27.306667C614.741333 936.277333 602.112 924.330667 587.093333 924.330667L587.093333 924.330667zM513.365333 170.666667 513.365333 170.666667l0.682667 0c9.557333 0 18.773333 0.682667 27.989333 1.365333L542.037333 75.776c0-15.701333-12.970667-28.330667-29.013333-28.330667-16.042667 0-29.013333 12.629333-29.013333 28.330667l0 96.256c9.216-1.024 18.773333-1.365333 27.989333-1.365333L513.365333 170.666667 513.365333 170.666667zM747.52 261.802667 747.52 261.802667l73.045333-71.68c11.264-10.922667 11.264-29.013333 0-40.277333-11.264-11.264-29.696-11.264-40.96 0l-72.021333 70.656C721.92 233.130667 735.232 246.784 747.52 261.802667L747.52 261.802667zM762.538667 655.701333c-11.946667 17.066667-24.234667 31.402667-36.181333 44.714667l52.906667 51.882667c11.264 10.922667 29.696 10.922667 40.96 0 11.264-11.264 11.264-29.013333 0-40.277333L762.538667 655.701333 762.538667 655.701333zM587.093333 855.722667l-147.456 0c-15.36 0-27.648 11.946667-27.648 27.306667 0 15.018667 12.288 26.965333 27.648 26.965333L587.093333 909.994667c15.36 0 27.648-12.288 27.648-26.965333C614.741333 867.669333 602.112 855.722667 587.093333 855.722667L587.093333 855.722667zM918.869333 422.912 918.869333 422.912l-103.082667 0c1.706667 13.312 2.730667 26.624 2.730667 40.277333 0 5.461333 0 10.922667-0.341333 16.384l100.693333 0c16.042667 0 29.013333-12.629333 29.013333-28.330667C947.541333 435.541333 934.912 422.912 918.869333 422.912L918.869333 422.912zM777.898667 463.189333 777.898667 463.189333c0-58.709333-19.797333-112.981333-53.589333-156.672-29.354667-38.229333-69.632-68.266667-116.053333-85.674667l0.341333-1.365333-19.797333-5.802667c-15.36-4.437333-31.402667-7.509333-47.445333-9.216l-2.389333-0.341333 0 0 0 0c-7.850667-0.682667-16.042667-1.365333-24.917333-1.365333l-1.365333 0c-8.533333 0-16.725333 0.682667-24.917333 1.365333l0 0-2.389333 0.341333c-16.042667 1.706667-32.085333 4.778667-47.445333 9.216l-19.114667 5.461333 0.341333 1.365333c-46.762667 17.749333-87.04 47.786667-116.736 86.016-33.450667 43.690667-53.589333 97.962667-53.589333 156.672 0 42.325333 7.509333 76.8 19.114667 105.472 17.408 43.008 43.690667 72.021333 65.194667 94.208 10.581333 10.922667 20.138667 20.48 26.282667 28.330667 6.485333 8.192 9.557333 14.336 10.581333 19.114667 4.778667 24.234667 5.12 54.613333 5.12 62.122667l0 2.389333c0 34.816 28.672 62.805333 64.170667 62.805333l49.834667 0 0-245.76-71.68-71.338667c-8.874667-8.533333-8.874667-22.869333 0-31.402667 8.874667-8.533333 22.869333-8.533333 31.402667 0l62.464 62.122667 62.464-62.122667c8.874667-8.533333 22.869333-8.533333 31.402667 0 8.874667 8.533333 8.874667 22.869333 0 31.402667l-71.68 71.338667 0 245.418667 53.930667 0c35.498667 0 64.170667-28.330667 64.170667-62.805333l0-2.048c0-7.509333 0.341333-38.229333 5.12-62.122667 0.682667-3.413333 2.048-7.168 5.12-11.946667 5.12-8.192 14.677333-18.432 26.624-30.378667 17.749333-18.432 40.277333-41.642667 58.368-74.410667C764.928 561.152 777.898667 518.485333 777.898667 463.189333L777.898667 463.189333zM762.538667 655.701333l0 0 0 0 0 0 0 0ZM762.538667 655.701333" p-id="3015" fill="#3fcccb"></path></svg>